<?xml version="1.0" encoding="UTF-8"?><svg id="_層_1" xmlns="http://www.w3.org/2000/svg" viewBox="0 0 290.81 258.8"><defs><style>.cls-1{fill:#edd966;}.cls-2{fill:#d0b531;}.cls-3{fill:#454545;}.cls-4{fill:#727272;}</style></defs><polygon class="cls-3" points="101.36 143.16 54.58 198.28 90.02 195.29 104.98 233.94 139.6 166.37 101.36 143.16"/><polygon class="cls-3" points="144.15 168.59 155.94 247.06 178.9 216.99 221.44 234.55 190.68 156.19 144.15 168.59"/><path class="cls-4" d="M175.09,26.82c9.58,6.56,8.41,16.29,19.5,20.92,7.3,3.04,9.52,1.37,16.53,5.04,6.62,3.47,10.48,9.17,10.45,17.12-.03,9.13-5.17,10.4-4.87,18.47,.36,9.89,9.27,12.67,10.15,23.5,.56,6.91-.94,12.73-5.31,16.68-5.91,5.35-11.16,3.92-14.17,8.64-3.1,4.87-1.86,5.31-2.59,13.32-.06,.67-.83,6.45-5.96,10.92-7.26,6.33-15.54,2.69-24.21,4.65-10.61,2.39-10.44,7.45-19.3,12.65-1.97,1.16-12.22,4.32-22.9-2.03-10.32-6.13-10.35-15.06-20.9-21.37-8.52-5.1-12.73-2.94-22.24-5.72-7.78-2.27-14.73-10.64-14.85-20.54-.1-8.4,4.62-12.28,5.63-21.32,1.12-10.01-8.93-11.38-10.03-22.88-.84-8.86,4.19-17.83,12.03-21.55,3.95-1.87,7.3-2.15,10.87-5.37,5.18-4.66,3.01-11.2,7.5-18.6,3.61-5.95,8.54-9.33,15.74-10.23,7.57-.95,9.3,1.92,15.62,2.95,7.98,1.29,10.46-6.5,20.71-9.04,6.2-1.54,14.58-1.69,22.58,3.8Z"/><circle class="cls-2" cx="148.3" cy="100.32" r="54.56"/><circle class="cls-1" cx="148.38" cy="101.17" r="41.6"/></svg>