<?xml version="1.0" encoding="UTF-8"?><svg id="_層_1" xmlns="http://www.w3.org/2000/svg" viewBox="0 0 290.81 258.8"><defs><style>.cls-1{fill:#edd966;}.cls-2{fill:#454545;}.cls-3{fill:#727272;}.cls-4{fill:#5d5e5e;}</style></defs><path class="cls-2" d="M99.4,123.09l-10.45,48.05s56.37,55.36,145.17,7.31l-12.52-85.65-122.21,30.29Z"/><path class="cls-4" d="M221.61,92.71l-31.31,7.76,2.33,94c12.86-3,26.73-8.12,41.49-16.11l-12.52-85.65Z"/><path class="cls-3" d="M139.09,61.46S46.13,110.55,36.73,115.78c0,0,103.41,20.89,124.3,33.42,0,0,73.1-54.31,116.99-67.89,0,0-71.03-25.07-138.92-19.85Z"/><path class="cls-1" d="M138.28,101.85c-1.12-.02-11.31-.13-23.99,2.18-17.72,3.23-30.85,9.41-39.01,18.38-15.31,16.82-24.19,20.1-30.69,22.5-1.26,.46-2.44,.9-3.61,1.4l-.54,.23,2.31,5.4,.54-.23c1.04-.45,2.17-.86,3.36-1.3,7.05-2.6,16.71-6.17,32.98-24.05,17.4-19.12,58.14-18.65,58.54-18.64h.59l.12-5.86h-.59Z"/><polygon class="cls-1" points="47.42 152.66 20.13 165.97 12.79 148.47 42.9 141.88 47.42 152.66"/></svg>