<?xml version="1.0" encoding="UTF-8"?><svg id="_層_1" xmlns="http://www.w3.org/2000/svg" viewBox="0 0 290.81 258.8"><defs><style>.cls-1{fill:#edd966;}.cls-2{fill:#454545;}.cls-3{fill:#fff;}.cls-3,.cls-4{stroke:#727272;stroke-miterlimit:10;}.cls-5{fill:#b5b5b5;opacity:.2;}.cls-4{fill:none;}</style></defs><ellipse class="cls-2" cx="147.72" cy="219.51" rx="13.12" ry="10.69" transform="translate(-38.35 31.4) rotate(-10.75)"/><polygon class="cls-1" points="91.45 167.98 99.19 234.42 195.32 205.97 162.97 140.69 91.45 167.98"/><polygon class="cls-2" points="161.52 164.18 103.05 184.5 102.18 181.91 160.66 161.58 161.52 164.18"/><polygon class="cls-2" points="164.99 174.53 108.19 199.34 107.14 196.82 163.94 172.01 164.99 174.53"/><polygon class="cls-2" points="174.74 189.7 115.22 206.61 114.49 203.98 174.01 187.06 174.74 189.7"/><path class="cls-3" d="M91.45,167.98s-29.22-11.67-39.79-38.15c-10.57-26.48-13.64-61.23,24.33-84.27,37.98-23.03,84.26-10.28,96.73,18.25,12.47,28.53,1.37,59.3-9.76,76.88"/><path class="cls-4" d="M89.09,147.98c15.13-33.68,10.18-48.51,8.58-54.64-2.48-9.47-5.9-13.44-11.06-9.97-3.31,2.23-3.57,6.95-.47,9.47,4.5,3.66,19.05-2.39,22.5-13.45,2.79-8.94,1.37-21.1-5.05-20.01-2.94,.5-4.63,6.08-4.12,11.27,.89,9.11,10.96,18,20.65,16.39,7.88-1.3,15.19-9.49,13.8-16.38-.97-4.82-6.24-9.27-9.06-8.11-2.52,1.03-16.22,16.84,38.11,78.14"/><path class="cls-5" d="M113.18,44.28l-6.03,.65s39.31,15.82,38.26,102.46l17.57-6.7s25.47-86.84-33.92-96.14c-5.25-.82-10.59-.84-15.87-.27Z"/><path class="cls-5" d="M71.78,62.65l3.44-3.34s-8.59,54.79,25.83,98.27l-4.85,1.85s-46.33-28.18-34.25-78.78c.89-3.72,6.19-13.86,9.83-18Z"/><polygon class="cls-1" points="230.85 87.64 223.71 106.03 208.14 113.31 223.62 120.57 224.4 138.34 236.26 126.3 256.55 130.05 249.17 114.12 256.71 100.05 240.92 100.63 230.85 87.64"/><path class="cls-4" d="M188.42,163.68c.32-2.77,1.89-13,11.91-20.91,3.59-2.84,7.28-4.58,10.14-5.67"/></svg>