<?xml version="1.0" encoding="UTF-8"?><svg id="_層_1" xmlns="http://www.w3.org/2000/svg" viewBox="0 0 290.81 258.8"><defs><style>.cls-1{fill:#fff;}.cls-2{fill:#edd966;}.cls-3{fill:#454545;}.cls-4{fill:#727272;}</style></defs><path class="cls-4" d="M112.58,101.66L37.02,198.96l41.72,30.91,53.87-117.34s33.39,11.83,57.24-18.89c13.8-17.77,12.78-50.85,0-62.96l-17.91,38.92-33.6-13.16,25.76-36.06s-25.18,2.29-39.49,13.16c-14.31,10.88-31.48,41.78-12.02,68.11Z"/><path class="cls-3" d="M189.85,30.68l-17.91,38.92-18.12-7.1-1.25-.49L55.06,212.32l23.68,17.54,53.87-117.34s33.39,11.83,57.24-18.89c13.8-17.77,12.78-50.85,0-62.96Z"/><circle class="cls-2" cx="141.04" cy="84.22" r="8.31"/><circle class="cls-3" cx="188.39" cy="186.01" r="39.71"/><polygon class="cls-3" points="181.38 159.39 196.99 160.87 204.25 136.68 182.07 134.58 181.38 159.39"/><polygon class="cls-3" points="176.42 211.83 192.03 213.3 194.63 238.42 172.44 236.33 176.42 211.83"/><polygon class="cls-3" points="205.1 164.86 214.57 177.36 237.3 166.34 223.84 148.58 205.1 164.86"/><polygon class="cls-3" points="215.9 180.29 215.18 195.95 239.69 202.04 240.71 179.78 215.9 180.29"/><polygon class="cls-3" points="207.07 201.03 197.6 213.53 214.34 232.43 227.81 214.67 207.07 201.03"/><polygon class="cls-3" points="175.91 162.1 164.26 172.6 144 157.52 160.55 142.6 175.91 162.1"/><polygon class="cls-3" points="162.4 175.22 160.18 190.75 134.96 192.13 138.13 170.07 162.4 175.22"/><polygon class="cls-3" points="167.19 197.25 174.15 211.31 154.16 226.74 144.26 206.77 167.19 197.25"/><circle class="cls-4" cx="188.39" cy="186.01" r="25.84"/><circle class="cls-1" cx="188.37" cy="186" r="14.19"/></svg>